<svg width="39" height="31" viewBox="0 0 39 31" fill="none" xmlns="http://www.w3.org/2000/svg">
<path d="M21.0998 1.18557C20.7804 0.720019 20.2446 0.440674 19.6714 0.440674C19.0979 0.440674 18.5623 0.720019 18.2429 1.18557L11.7411 10.6627L3.75724 1.87352C3.24268 1.30706 2.40421 1.14693 1.70942 1.4824C1.01464 1.81788 0.635108 2.56614 0.782505 3.30986L5.40284 26.6224C5.87292 28.9943 7.99729 30.7074 10.4687 30.7074H28.874C31.3453 30.7074 33.4697 28.9943 33.9398 26.6224L38.5601 3.30986C38.7075 2.56614 38.328 1.81788 37.6332 1.4824C36.9384 1.14693 36.0999 1.30706 35.5853 1.87352L27.6015 10.6627L21.0998 1.18557Z" fill="#86DBED"/>
</svg>
