<svg width="46" height="45" viewBox="0 0 46 45" fill="none" xmlns="http://www.w3.org/2000/svg">
<path d="M10.1957 34.0902C3.98899 27.4171 4.09875 16.9573 10.5469 10.4625C13.0741 7.906 16.36 6.2351 19.9146 5.69909L19.7253 0C14.7353 0.602503 10.0961 2.87616 6.56277 6.45091C-2.07778 15.1491 -2.18204 29.1951 6.22527 38.0909L1.44814 42.8982L16.567 43.7241L16.5259 27.7162L10.1957 34.0902ZM28.4344 1.27591L28.4756 17.2838L34.8058 10.9125C41.0125 17.5912 40.9027 28.0509 34.4545 34.5402C31.9279 37.0974 28.6416 38.7684 25.0869 39.3037L25.2762 45C30.2662 44.3967 34.9057 42.1243 38.4414 38.5518C47.0792 29.8482 47.1835 15.8021 38.7762 6.91189L43.5533 2.09909L28.4344 1.27591Z" fill="#8FB3FF"/>
</svg>
