<svg width="35" height="35" viewBox="0 0 35 35" fill="none" xmlns="http://www.w3.org/2000/svg">
<path d="M17.2906 0.639404C8.60719 0.639404 1.43793 6.95843 0.319858 15.148C0.318788 15.1564 0.317717 15.1642 0.316647 15.1726C0.286675 15.3929 0.259914 15.6137 0.238505 15.8366C0.228336 15.9396 0.222984 16.0438 0.21442 16.1474C0.20318 16.2939 0.19087 16.4404 0.183377 16.5879C0.171067 16.8506 0.163574 17.1159 0.163574 17.3827C0.163574 26.6297 7.83166 34.126 17.2906 34.126C26.7495 34.126 34.4176 26.6297 34.4176 17.3827C34.4176 8.13569 26.7495 0.639404 17.2906 0.639404ZM18.0196 31.2493C17.6342 31.6611 17.0021 31.9891 16.5878 31.5998C16.2383 31.2629 16.5349 30.8464 16.5878 30.3687C16.6547 29.8115 16.3941 29.1417 16.9443 28.9685C17.3923 28.833 17.73 29.137 18.0196 29.498C18.4611 30.0317 18.4889 30.7386 18.0196 31.2493ZM23.4167 26.7328C22.7851 27.0509 22.3431 26.9913 21.6382 27.0849C20.3247 27.2466 19.2864 27.8802 18.2486 27.0849C17.7846 26.7213 17.7252 26.3257 17.3655 25.86C16.7853 25.1464 16.6403 23.8304 15.7545 24.1219C15.1882 24.3081 15.2054 24.8622 14.8693 25.3436C14.4357 25.9485 14.5444 26.805 13.7961 26.9096C13.2748 26.9818 12.9938 26.67 12.5539 26.3864C12.0604 26.0651 11.963 25.6811 11.4824 25.3436C10.9825 24.9831 10.5779 24.981 10.0619 24.6456C9.69047 24.4034 9.61126 23.9633 9.16649 23.9476C8.76454 23.9361 8.4766 24.1287 8.27589 24.4688C7.9007 25.104 7.77171 26.9766 6.67665 26.9096C5.86526 26.8557 4.13008 25.0736 3.46855 24.6456C3.25179 24.5028 3.05108 24.3573 2.84877 24.2464C1.86985 22.2812 1.30145 20.0857 1.24472 17.7662C1.57334 17.4968 1.90785 17.3639 2.21828 16.985C2.71443 16.3938 2.47572 15.6733 3.1137 15.2401C3.58791 14.9241 3.97112 14.9748 4.5422 14.8958C5.36055 14.7796 5.87543 14.675 6.67665 14.8958C7.45754 15.1098 7.75566 15.5477 8.45679 15.9381C9.21413 16.3619 9.55506 16.8621 10.4157 16.985C11.0398 17.0714 11.4679 16.5136 12.0149 16.8087C12.4559 17.0484 12.7674 17.3665 12.7327 17.8557C12.6791 18.493 11.3828 18.088 11.3095 18.7253C11.2116 19.5405 12.654 18.6238 13.4461 18.898C13.9674 19.0837 14.6455 19.0518 14.6905 19.596C14.7338 20.2008 13.8299 20.0339 13.2684 20.2945C12.6465 20.5775 12.3205 20.8156 11.6606 20.9898C11.0585 21.1458 10.4232 20.6612 10.0619 21.162C9.77825 21.5502 9.87833 21.9411 10.0619 22.3837C10.4831 23.3941 11.8544 23.0911 12.9103 22.7275C13.6506 22.4721 13.7886 21.8244 14.5144 21.5089C15.284 21.1735 15.8814 20.8104 16.6451 21.162C17.2756 21.4529 17.0995 22.2346 17.7188 22.5553C18.3894 22.9048 19.0204 22.1739 19.6793 22.5553C20.1915 22.853 20.154 23.3512 20.5651 23.7729C21.0435 24.2658 21.3197 24.6634 21.993 24.8193C22.6813 24.9758 23.102 24.259 23.7737 24.4683C24.2902 24.6331 24.713 24.824 24.8372 25.3431C25.0325 26.0861 24.1114 26.3812 23.4167 26.7328ZM24.6975 18.346C24.0798 18.9529 23.5435 19.1512 22.6792 19.3364C21.9122 19.5012 20.8364 20.0888 20.6603 19.3364C20.526 18.7358 21.2111 18.5212 21.6735 18.1021C22.1868 17.6338 22.6658 17.5878 23.186 17.1122C23.6517 16.6926 23.5906 16.0495 24.1992 15.8779C24.7927 15.7105 25.367 15.868 25.7112 16.3734C26.2031 17.0886 25.3221 17.739 24.6975 18.346ZM32.2708 15.9799C32.0075 16.2457 32.0236 16.5262 31.7543 16.7867C31.4562 17.0688 31.042 16.9474 30.8241 17.2932C30.6325 17.5951 30.7546 17.8463 30.7203 18.201C30.6984 18.4035 29.6905 18.8582 29.4823 18.4025C29.3678 18.1508 29.6327 17.9279 29.4823 17.6945C29.3416 17.4847 29.1853 17.5925 29.0012 17.7892C28.809 17.9923 28.588 18.2905 28.3477 18.4025C28.0324 18.5453 28.2428 17.2252 28.1363 16.7867C28.0581 16.4398 28.1416 16.2217 28.2422 15.8784C28.376 15.4023 28.7443 15.2474 28.8604 14.7666C28.9642 14.3448 28.8781 14.089 28.8604 13.6557C28.8395 13.1817 28.8524 12.9091 28.7598 12.445C28.657 11.9547 28.6249 11.6471 28.3471 11.2332C28.1234 10.9067 27.9757 10.7094 27.6225 10.5258C27.5368 10.4798 27.4565 10.4494 27.3805 10.4259C27.1986 10.3667 27.0278 10.3589 26.7929 10.3249C26.3176 10.2558 25.9783 10.5509 25.5544 10.3249C25.3071 10.1915 25.23 10.024 25.0406 9.81892C24.8243 9.59183 24.7671 9.40609 24.523 9.21302C24.3405 9.06861 24.2276 8.98437 24.0065 8.90902C23.5837 8.77141 23.2882 8.86612 22.8686 9.01157C22.4565 9.1518 22.3024 9.3815 21.9379 9.6159C21.6585 9.77444 21.4599 9.81002 21.2164 10.0209C21.0687 10.1475 20.3654 10.6367 20.078 10.6252C19.7868 10.6142 19.6225 10.4457 19.3619 10.4253C19.3271 10.4212 19.2923 10.4212 19.2527 10.4253C19.2527 10.4253 19.2527 10.4253 19.25 10.4253C18.9969 10.4442 18.8775 10.5661 18.6367 10.6252C18.0442 10.7696 17.6668 10.565 17.0818 10.7283C16.7008 10.8329 16.5504 11.1291 16.1559 11.1317C15.7058 11.1343 15.5538 10.7429 15.1219 10.6252C14.8853 10.5635 14.7462 10.5577 14.5026 10.5258C14.1017 10.4693 13.8721 10.4635 13.4718 10.4259H13.4691C13.4606 10.429 13.1528 10.4562 13.1009 10.4259C12.875 10.2762 12.7145 10.1533 12.4351 10.0214C12.1273 9.87333 11.9432 9.79746 11.6071 9.71584L11.621 9.51649C11.621 9.51649 11.621 9.07332 11.5562 8.88495C11.4947 8.69607 11.4278 8.69607 11.5562 8.31673C11.689 7.93896 11.9197 7.69827 11.9197 7.69827C12.0786 7.57898 12.1958 7.53869 12.3312 7.3948C12.6042 7.11278 12.715 6.87262 12.7455 6.48491C12.7814 5.97633 12.1006 5.76965 12.2263 5.27311C12.3382 4.84092 12.7102 4.76035 13.0543 4.46577C13.4713 4.11521 13.84 4.06916 14.189 3.65895C14.4571 3.34868 14.6766 3.15404 14.7082 2.74958C14.7365 2.40582 14.5851 2.19078 14.4031 1.94486C15.3402 1.77742 16.3042 1.68586 17.2906 1.68586C25.2755 1.68586 31.8967 7.38538 33.1357 14.8492C33.0271 15.0334 33.1352 15.2657 32.9912 15.4734C32.8007 15.7576 32.5101 15.7345 32.2708 15.9799Z" fill="#86DBED"/>
</svg>
