<svg width="50" height="49" viewBox="0 0 50 49" fill="none" xmlns="http://www.w3.org/2000/svg">
<path fill-rule="evenodd" clip-rule="evenodd" d="M40.9135 43.4681H8.49311C6.74816 43.4681 5.45961 41.7849 6.11775 40.237C9.17142 33.0792 16.3454 28.9787 24.702 28.9787C33.0612 28.9787 40.2352 33.0792 43.2888 40.237C43.947 41.7849 42.6584 43.4681 40.9135 43.4681ZM14.6156 14.4894C14.6156 9.16209 19.1419 4.82976 24.702 4.82976C30.2647 4.82976 34.7885 9.16209 34.7885 14.4894C34.7885 19.8166 30.2647 24.1489 24.702 24.1489C19.1419 24.1489 14.6156 19.8166 14.6156 14.4894ZM49.2953 42.5891C47.4621 34.4774 41.7279 28.4909 34.1808 25.7741C38.18 22.6903 40.5125 17.7035 39.6552 12.2434C38.6617 5.90909 33.1595 0.840329 26.5176 0.10137C17.349 -0.920132 9.57235 5.91405 9.57235 14.4894C9.57235 19.0535 11.7813 23.1201 15.2258 25.7741C7.67611 28.4909 1.94448 34.4774 0.10875 42.5891C-0.556956 45.5377 1.92431 48.2979 5.0738 48.2979H44.3302C47.4823 48.2979 49.9635 45.5377 49.2953 42.5891Z" fill="#86DBED"/>
</svg>
