<svg width="60" height="60" viewBox="0 0 60 60" fill="none" xmlns="http://www.w3.org/2000/svg">
<path fill-rule="evenodd" clip-rule="evenodd" d="M15 0V9H51V45H60V51H51V60H45V51H9V14.9999L0 15V9H9V0H15ZM23.2499 24.0881L15 32.9038V41.6845L23.391 32.715L33.1396 42.4631L38.592 37.008L45 43.4144V34.929L38.5942 28.5232L33.138 33.978L23.2499 24.0881ZM34.5 16.5C32.0147 16.5 30 18.5147 30 21C30 23.4853 32.0147 25.5 34.5 25.5C36.9853 25.5 39 23.4853 39 21C39 18.5147 36.9853 16.5 34.5 16.5Z" fill="#8FB3FF"/>
</svg>
