<svg width="35" height="35" viewBox="0 0 35 35" fill="none" xmlns="http://www.w3.org/2000/svg">
<path fill-rule="evenodd" clip-rule="evenodd" d="M20.5852 1.54624C20.7347 1.82974 20.7719 2.1928 20.846 2.9189C20.9866 4.29329 21.057 4.98051 21.3513 5.35755C21.7245 5.83582 22.3315 6.08161 22.9413 6.00141C23.4221 5.93819 23.9688 5.50085 25.0624 4.6262C25.64 4.16412 25.9288 3.93308 26.2397 3.836C26.6344 3.71272 27.0616 3.73353 27.4418 3.89462C27.7412 4.02145 28.0051 4.27943 28.533 4.79542L30.0633 6.29139C30.5909 6.80738 30.8549 7.06538 30.9847 7.35807C31.1495 7.72982 31.1707 8.14735 31.0446 8.53327C30.9453 8.83712 30.709 9.11951 30.2362 9.6843C29.3415 10.7534 28.8942 11.2879 28.8296 11.7579C28.7476 12.3541 28.999 12.9474 29.4881 13.3123C29.8738 13.5999 30.5767 13.6686 31.9827 13.8061C32.7255 13.8787 33.097 13.915 33.3869 14.0612C33.7552 14.247 34.0422 14.5569 34.1945 14.9337C34.3145 15.2303 34.3145 15.5952 34.3145 16.3249V18.4407C34.3145 19.1702 34.3145 19.535 34.1946 19.8316C34.0422 20.2085 33.7552 20.5185 33.3868 20.7042C33.0968 20.8504 32.7255 20.8867 31.9829 20.9592C30.5774 21.0967 29.8747 21.1653 29.489 21.4528C28.9995 21.8178 28.7481 22.4114 28.8303 23.0078C28.895 23.4776 29.3422 24.0119 30.2366 25.0806C30.7091 25.6452 30.9453 25.9275 31.0446 26.2312C31.1709 26.6173 31.1495 27.0349 30.9847 27.4067C30.8549 27.6994 30.5911 27.9573 30.0634 28.4731L28.533 29.9693C28.0053 30.4852 27.7414 30.7432 27.442 30.8701C27.0616 31.0312 26.6346 31.0519 26.2398 30.9287C25.929 30.8316 25.64 30.6005 25.0624 30.1384C23.9688 29.2637 23.4221 28.8264 22.9413 28.7633C22.3315 28.6831 21.7245 28.9289 21.3513 29.4071C21.057 29.7841 20.9868 30.4714 20.8462 31.8461C20.7719 32.5725 20.7347 32.9357 20.585 33.2193C20.3951 33.5793 20.0781 33.8596 19.6929 34.0086C19.3894 34.126 19.016 34.126 18.2693 34.126H16.1055C15.3591 34.126 14.9859 34.126 14.6824 34.0086C14.297 33.8598 13.98 33.5792 13.7899 33.2192C13.6404 32.9357 13.6032 32.5725 13.529 31.8464C13.3884 30.4719 13.3181 29.7848 13.0238 29.4077C12.6506 28.9295 12.0437 28.6838 11.4338 28.764C10.9531 28.8271 10.4063 29.2644 9.31268 30.1392C8.73494 30.6014 8.44604 30.8324 8.1352 30.9294C7.74046 31.0528 7.31338 31.0318 6.93313 30.8708C6.63371 30.744 6.36979 30.486 5.84195 29.97L4.31176 28.474C3.78392 27.9581 3.51999 27.7001 3.39027 27.4074C3.22551 27.0355 3.20421 26.6181 3.33031 26.2322C3.42961 25.9283 3.66597 25.6458 4.13865 25.0811C5.03339 24.012 5.48074 23.4776 5.54541 23.0074C5.62745 22.4114 5.37603 21.818 4.8868 21.4532C4.50111 21.1655 3.79817 21.0967 2.39227 20.9592C1.64952 20.8867 1.27816 20.8504 0.988162 20.7042C0.619846 20.5184 0.3329 20.2085 0.180521 19.8317C0.0605469 19.535 0.0605469 19.1702 0.0605469 18.4405V16.325C0.0605469 15.5952 0.060547 15.2302 0.180573 14.9335C0.332952 14.5569 0.619812 14.247 0.988008 14.0613C1.27807 13.915 1.64954 13.8787 2.39247 13.8061C3.79874 13.6686 4.5019 13.5999 4.88765 13.3121C5.37668 12.9473 5.62802 12.3541 5.5461 11.7581C5.48148 11.2879 5.03397 10.7532 4.13896 9.68383C3.66605 9.11879 3.42961 8.83627 3.33033 8.53228C3.20433 8.14649 3.22561 7.72915 3.39026 7.35753C3.51999 7.06471 3.78401 6.80661 4.31203 6.29042L5.84202 4.7947C6.36986 4.27868 6.6338 4.02066 6.93321 3.89385C7.31345 3.73278 7.74053 3.71197 8.13529 3.83523C8.44613 3.93231 8.73504 4.1634 9.31289 4.62558C10.4063 5.50015 10.953 5.93744 11.4336 6.00072C12.0436 6.08103 12.6508 5.83517 13.0241 5.35669C13.3182 4.97972 13.3884 4.29271 13.529 2.91869C13.6032 2.19278 13.6404 1.82982 13.7899 1.54639C13.9798 1.18621 14.297 0.905589 14.6825 0.756624C14.9859 0.639404 15.3591 0.639404 16.1053 0.639404H18.2696C19.016 0.639404 19.3892 0.639404 19.6927 0.756691C20.0781 0.905656 20.3951 1.18617 20.5852 1.54624ZM17.1875 24.08C20.9711 24.08 24.0383 21.0815 24.0383 17.3827C24.0383 13.6839 20.9711 10.6854 17.1875 10.6854C13.4039 10.6854 10.3367 13.6839 10.3367 17.3827C10.3367 21.0815 13.4039 24.08 17.1875 24.08Z" fill="#86DBED"/>
</svg>
